PathFileType	4	(X/Y/Z)	C:/Users/opensim2020/Desktop/walking_exp_matlab/subject06_walking15_straight_04.trc																																																																																																																																											
DataRate	CameraRate	NumFrames	NumMarkers	Units	OrigDataRate	OrigDataStartFrame	OrigNumFrames																																																																																																																																							
100	100	6	47	mm	100	2960	157																																																																																																																																							
Frame#	Time	LFHD			RFHD			LBHD			RBHD			C7			T10			CLAV			STRN			RBAK			LSHO			LUPA			LELB			LFRM			LWRA			LWRB			LFIN			RSHO			RUPA			RELB			RFRM			RWRA			RWRB			RFIN			LASI			RASI			LPSI			RPSI			LTHI			LKNE			LTIB			LANK			LHEE			LTOE			RTHI			RKNE			RTIB			RANK			RHEE			RTOE			*39			*40			*41			*42			*43			*44			*45			*46		
		X1	Y1	Z1	X2	Y2	Z2	X3	Y3	Z3	X4	Y4	Z4	X5	Y5	Z5	X6	Y6	Z6	X7	Y7	Z7	X8	Y8	Z8	X9	Y9	Z9	X10	Y10	Z10	X11	Y11	Z11	X12	Y12	Z12	X13	Y13	Z13	X14	Y14	Z14	X15	Y15	Z15	X16	Y16	Z16	X17	Y17	Z17	X18	Y18	Z18	X19	Y19	Z19	X20	Y20	Z20	X21	Y21	Z21	X22	Y22	Z22	X23	Y23	Z23	X24	Y24	Z24	X25	Y25	Z25	X26	Y26	Z26	X27	Y27	Z27	X28	Y28	Z28	X29	Y29	Z29	X30	Y30	Z30	X31	Y31	Z31	X32	Y32	Z32	X33	Y33	Z33	X34	Y34	Z34	X35	Y35	Z35	X36	Y36	Z36	X37	Y37	Z37	X38	Y38	Z38	X39	Y39	Z39	X40	Y40	Z40	X41	Y41	Z41	X42	Y42	Z42	X43	Y43	Z43	X44	Y44	Z44	X45	Y45	Z45	X46	Y46	Z46	X47	Y47	Z47
																																																																																																																																														
99	0.98	35.8117	1656.26855	911.11615	56.6746	1652.77893	1041.88416	-97.09554	1606.04651	935.06396	-74.53696	1607.6853	1063.33081	-91.81731	1449.37915	989.56061	-123.14862	1119.02551	997.85254	18.75565	1372.33606	986.44348	58.916	1199.66406	984.18604	-164.35187	1279.46057	1069.96045	-43.19915	1402.13452	825.99658	-71.59981	1201.30249	755.73798	-93.60889	1090.29333	746.13739	-84.846	940.65759	722.59454	-32.23075	820.99402	760.25244	-95.65172	821.90723	726.16711	-62.52744	737.08514	723.80945	-24.25429	1404.91492	1148.95654	-63.89501	1210.6394	1243.04736	-50.95598	1089.91443	1258.59937	-6.54417	979.13672	1270.65186	86.92374	866.37317	1224.72327	40.73671	850.91724	1270.70239	98.05451	789.50055	1264.2771	64.69556	968.1994	895.94098	50.56407	966.35266	1114.76685	-94.92292	990.17865	914.13794	-99.31127	984.78094	1081.14917	25.46752	650.38574	834.11377	45.68798	488.93567	862.39197	11.36104	232.58397	877.07135	3.93818	63.91058	927.91168	-36.03742	51.69412	973.96442	149.34314	34.34197	928.91803	20.42328	626.27252	1177.19275	46.59231	501.47769	1168.36853	-140.97137	333.04761	1156.90735	-289.21011	224.29428	1109.24329	-326.93588	238.03705	1060.07129	-233.67596	77.61769	1117.62585	-52.65916	1701.18665	983.39746	NaN	NaN	NaN	NaN	NaN	NaN	NaN	NaN	NaN	NaN	NaN	NaN	NaN	NaN	NaN	NaN	NaN	NaN	NaN	NaN	NaN
100	0.99	46.67173	1657.33142	911.0769	67.23981	1653.61829	1041.80505	-86.09075	1607.07581	934.90778	-64.15367	1608.49646	1062.90015	-81.34879	1450.44775	988.6449	-113.0574	1120.19775	996.85632	29.01774	1373.21497	985.96484	69.04149	1200.51514	983.39227	-154.26118	1280.66003	1068.78711	-31.70922	1403.18835	825.44366	-56.44679	1201.91602	754.04712	-76.65134	1090.62744	743.93286	-64.80933	941.12073	720.15088	-10.03043	822.77344	758.97827	-72.85315	822.27679	723.57129	-37.33415	738.42755	721.22406	-14.42486	1405.73499	1148.36743	-55.52892	1211.26282	1241.46436	-43.32804	1090.328	1256.87756	-1.8498	978.20001	1269.52209	88.4582	862.26117	1224.98364	41.13413	848.46387	1270.67383	96.97057	785.4151	1265.17761	74.36578	968.83167	894.42645	61.09118	967.84979	1113.59412	-85.22275	990.90674	913.55975	-88.97173	986.01526	1080.58923	31.73812	650.54401	834.23535	49.61031	488.67728	862.15326	11.65348	232.89171	877.15546	4.06802	64.05386	928.17975	-36.15165	52.16436	974.37396	149.41924	34.25114	928.89252	36.56571	628.66351	1176.85974	65.33445	504.50827	1167.57715	-119.87016	332.97064	1156.45703	-265.80472	220.56023	1109.24976	-304.70868	232.41235	1060.20874	-203.39131	77.59625	1118.75586	-41.95174	1702.17786	983.19843	NaN	NaN	NaN	NaN	NaN	NaN	NaN	NaN	NaN	NaN	NaN	NaN	NaN	NaN	NaN	NaN	NaN	NaN	NaN	NaN	NaN
101	1	57.49133	1658.29102	910.98547	77.78114	1654.29614	1041.83716	-75.36256	1608.12549	934.46088	-53.66991	1609.30908	1062.63269	-70.87559	1451.48914	987.89032	-103.03718	1121.28845	995.82343	39.39072	1374.05017	985.47278	78.99818	1201.27136	982.62732	-144.3111	1281.79626	1067.80652	-20.46539	1404.18811	824.77295	-41.73941	1202.52808	752.64868	-59.59377	1090.95032	741.87469	-44.3699	942.02771	717.95685	12.08558	824.70874	757.39325	-49.91604	822.75653	721.11584	-11.99416	740.14111	718.71979	-4.54153	1406.50549	1147.80591	-46.9459	1211.89209	1240.10107	-35.86856	1090.68713	1255.12878	2.65824	977.30884	1268.36548	89.69747	858.26001	1225.28894	41.51262	846.22382	1270.72266	95.36656	781.55164	1266.20471	83.77522	969.36682	892.95294	71.66323	969.31586	1112.46606	-75.64085	991.50049	912.97168	-78.60561	987.23651	1080.12463	38.43508	650.62494	834.13446	53.28381	488.38049	861.95795	12.12677	233.1552	877.24359	4.22759	64.22705	928.42834	-35.77924	52.30277	974.51532	149.45277	34.17184	928.8714	52.40989	630.9892	1176.46118	83.31339	507.50089	1166.59888	-98.64864	332.22104	1155.94458	-241.80197	215.66083	1109.24756	-281.86658	225.43959	1060.3446	-172.44829	76.70319	1119.62732	-31.17001	1703.10461	983.0556	NaN	NaN	NaN	NaN	NaN	NaN	NaN	NaN	NaN	NaN	NaN	NaN	NaN	NaN	NaN	NaN	NaN	NaN	NaN	NaN	NaN
102	1.01	68.41328	1659.05884	911.04956	88.35306	1654.80054	1041.90393	-64.63131	1609.11304	934.21912	-43.1559	1610.09241	1062.16736	-60.57009	1452.2821	987.11981	-93.18782	1122.33118	995.00189	49.66608	1374.76538	984.96814	89.06026	1201.92334	981.76398	-134.26685	1282.81787	1066.92224	-9.44125	1405.13599	824.21149	-27.17046	1203.1969	751.38367	-42.85213	1091.33875	739.89777	-23.87208	942.67004	716.26819	34.01652	826.65564	756.12207	-26.6403	823.51892	718.59979	13.44066	742.11456	716.38483	5.37455	1407.15894	1147.22559	-38.44492	1212.5918	1238.97339	-28.56622	1091.01257	1253.47498	6.99954	976.50476	1267.28015	90.77371	854.41589	1225.66711	41.72131	844.19641	1270.64404	93.53741	777.91364	1267.23853	93.16722	969.71277	891.50439	82.17441	970.72754	1111.38647	-66.12193	991.99292	912.44855	-68.35469	988.46692	1079.62488	43.75278	650.48315	834.51825	56.84831	488.08698	861.65558	13.20428	233.32002	877.19421	4.32017	64.49286	928.56073	-32.87241	50.49439	976.51495	149.52951	34.09089	928.82599	67.96006	633.14667	1175.94751	100.82044	510.36557	1165.47791	-77.21877	330.65274	1155.36462	-217.1048	209.71777	1109.25769	-258.10333	217.19815	1060.31812	-140.78381	75.03404	1120.67212	-20.3995	1703.92041	983.00299	NaN	NaN	NaN	NaN	NaN	NaN	NaN	NaN	NaN	NaN	NaN	NaN	NaN	NaN	NaN	NaN	NaN	NaN	NaN	NaN	NaN
103	1.02	79.18155	1659.71497	911.07568	98.84754	1655.16919	1041.95337	-54.11939	1610.04236	933.54108	-32.80088	1610.6095	1061.90039	-50.29546	1453.02551	986.52051	-83.23568	1123.08191	994.01416	59.87988	1375.3219	984.45825	98.86895	1202.40894	980.90167	-124.32797	1283.6759	1066.0885	1.45733	1405.98743	823.80133	-12.78775	1203.89722	750.18628	-26.09247	1091.7616	737.97858	-3.70796	943.5459	714.12732	56.85469	828.95959	754.94623	-3.27952	824.56409	716.3446	38.96278	744.41748	714.05737	15.36306	1407.64209	1146.68872	-29.84153	1212.85388	1237.29907	-21.25017	1091.2196	1251.901	11.19667	975.63507	1266.25293	91.66124	850.68414	1226.11255	41.81869	842.24512	1270.57739	91.4549	774.4043	1268.34851	102.48502	969.935	890.16382	92.50682	972.00018	1110.40454	-56.83504	992.56958	912.12512	-58.0098	989.55048	1079.29321	50.06648	650.43518	834.29376	60.56464	487.87756	861.35455	14.90187	233.52934	877.04236	4.53184	64.7535	928.48425	-35.69474	52.99717	974.65118	149.53851	34.09966	928.70605	83.07403	635.32507	1175.69824	117.91698	513.10498	1164.36841	-55.6855	328.33984	1154.87988	-191.78195	202.81706	1109.21497	-233.45155	207.90393	1060.14111	-108.61697	72.89671	1121.71875	-9.68823	1704.61731	982.94165	NaN	NaN	NaN	NaN	NaN	NaN	NaN	NaN	NaN	NaN	NaN	NaN	NaN	NaN	NaN	NaN	NaN	NaN	NaN	NaN	NaN
104	1.03	89.95408	1660.27148	911.1297	109.36443	1655.41992	1042.06067	-43.50454	1610.8363	933.24579	-22.45727	1611.04785	1061.69421	-39.90417	1453.52795	985.86328	-73.37549	1123.71887	993.21588	70.032	1375.75818	983.9129	108.71661	1202.72876	979.93835	-114.27872	1284.33643	1065.28076	11.94346	1406.77698	823.26062	1.40823	1204.62915	749.04169	-9.28108	1092.25891	736.15582	16.78755	944.95135	711.85358	79.61671	831.52008	753.59692	20.32852	825.66827	714.34888	64.59933	746.76685	711.94403	25.39601	1407.94885	1146.13586	-20.91928	1213.21838	1236.3252	-13.95811	1091.28284	1250.4248	15.25388	974.78711	1265.35278	92.64879	847.12781	1226.62427	41.80542	840.41766	1270.29443	89.4942	771.09918	1269.03845	111.70158	970.07343	888.96179	102.78942	973.05542	1109.07666	-47.14098	992.74268	911.83508	-47.71851	990.53021	1079.0459	56.33598	650.52008	834.20959	64.36255	487.63937	861.00427	16.95618	233.71118	876.75812	4.74182	64.83461	928.60223	-32.74072	51.23884	976.36285	149.63351	33.94472	928.72382	97.97844	637.3313	1175.40796	134.76015	515.69836	1163.18665	-34.03791	325.37427	1154.41296	-165.75761	194.98561	1109.07495	-207.82204	197.73248	1059.83984	-76.15259	69.80598	1122.8562	1.02188	1705.18237	982.94122	NaN	NaN	NaN	NaN	NaN	NaN	NaN	NaN	NaN	NaN	NaN	NaN	NaN	NaN	NaN	NaN	NaN	NaN	NaN	NaN	NaN
